<svg xmlns="http://www.w3.org/2000/svg" width="512" height="512" viewBox="0 0 512 512" role="img" aria-labelledby="title desc">
  <title>Candy Bear</title>
  <desc>Cute bear sticker</desc>
  <defs>
    <linearGradient id="bg" x1="0%" y1="0%" x2="100%" y2="100%">
      <stop offset="0%" stop-color="#fff4ec" />
      <stop offset="100%" stop-color="#ffd2b4" />
    </linearGradient>
    <filter id="shadow" x="-20%" y="-20%" width="140%" height="140%">
      <feDropShadow dx="0" dy="12" stdDeviation="16" flood-color="#efb28a" flood-opacity="0.22" />
    </filter>
  </defs>
  <rect width="512" height="512" rx="140" fill="url(#bg)" />
  <g opacity="0.35">
    <circle cx="92" cy="104" r="34" fill="#ffffff" />
    <circle cx="420" cy="118" r="28" fill="#ffffff" />
    <circle cx="392" cy="392" r="22" fill="#ffffff" />
  </g>
  <g filter="url(#shadow)">
    <g transform="translate(96 92)">
      <circle cx="112" cy="102" r="46" fill="#b97d57" />
      <circle cx="208" cy="102" r="46" fill="#b97d57" />
      <circle cx="160" cy="202" r="136" fill="#c98c63" />
      <circle cx="160" cy="228" r="70" fill="#f8dfca" />
      <circle cx="120" cy="194" r="10" fill="#5d4538" />
      <circle cx="200" cy="194" r="10" fill="#5d4538" />
      <circle cx="160" cy="220" r="12" fill="#5d4538" />
      <path d="M132 254c18 18 50 18 68 0" fill="none" stroke="#5d4538" stroke-width="10" stroke-linecap="round" />
      <path d="M118 312c20-38 64-38 84 0-14 16-28 24-42 24s-28-8-42-24z" fill="#ff98aa" />
      <path d="M202 312c20-38 64-38 84 0-14 16-28 24-42 24s-28-8-42-24z" fill="#ff98aa" opacity="0.86" />
    </g>

  </g>
</svg>
