<svg xmlns="http://www.w3.org/2000/svg" width="512" height="512" viewBox="0 0 512 512" role="img" aria-labelledby="title desc">
  <title>Bunny Hop</title>
  <desc>????????</desc>
  <defs>
    <linearGradient id="bg" x1="0%" y1="0%" x2="100%" y2="100%">
      <stop offset="0%" stop-color="#f8f1ff" />
      <stop offset="100%" stop-color="#dccdff" />
    </linearGradient>
    <filter id="shadow" x="-20%" y="-20%" width="140%" height="140%">
      <feDropShadow dx="0" dy="12" stdDeviation="16" flood-color="#b49cff" flood-opacity="0.22" />
    </filter>
  </defs>
  <rect width="512" height="512" rx="140" fill="url(#bg)" />
  <g opacity="0.35">
    <circle cx="92" cy="104" r="34" fill="#ffffff" />
    <circle cx="420" cy="118" r="28" fill="#ffffff" />
    <circle cx="392" cy="392" r="22" fill="#ffffff" />
  </g>
  <g filter="url(#shadow)">
    <g transform="translate(116 72)">
      <rect x="34" y="0" width="58" height="156" rx="28" fill="#ffffff" />
      <rect x="174" y="0" width="58" height="156" rx="28" fill="#ffffff" />
      <rect x="48" y="18" width="30" height="116" rx="16" fill="#ffd8e8" />
      <rect x="188" y="18" width="30" height="116" rx="16" fill="#ffd8e8" />
      <circle cx="132" cy="222" r="122" fill="#ffffff" />
      <circle cx="92" cy="212" r="10" fill="#6a5878" />
      <circle cx="172" cy="212" r="10" fill="#6a5878" />
      <circle cx="132" cy="240" r="12" fill="#ff9db6" />
      <path d="M118 266c10 10 18 14 28 14s18-4 28-14" fill="none" stroke="#6a5878" stroke-width="9" stroke-linecap="round" />
      <circle cx="58" cy="246" r="16" fill="#ffd8e8" />
      <circle cx="206" cy="246" r="16" fill="#ffd8e8" />
    </g>

  </g>
</svg>
