<svg xmlns="http://www.w3.org/2000/svg" width="512" height="512" viewBox="0 0 512 512" role="img" aria-labelledby="title desc">
  <title>Kitty Bell</title>
  <desc>Cute cat sticker</desc>
  <defs>
    <linearGradient id="bg" x1="0%" y1="0%" x2="100%" y2="100%">
      <stop offset="0%" stop-color="#fff1f6" />
      <stop offset="100%" stop-color="#ffc3d9" />
    </linearGradient>
    <filter id="shadow" x="-20%" y="-20%" width="140%" height="140%">
      <feDropShadow dx="0" dy="12" stdDeviation="16" flood-color="#ef9fbf" flood-opacity="0.22" />
    </filter>
  </defs>
  <rect width="512" height="512" rx="140" fill="url(#bg)" />
  <g opacity="0.35">
    <circle cx="92" cy="104" r="34" fill="#ffffff" />
    <circle cx="420" cy="118" r="28" fill="#ffffff" />
    <circle cx="392" cy="392" r="22" fill="#ffffff" />
  </g>
  <g filter="url(#shadow)">
    <g transform="translate(98 92)">
      <path d="M80 80l48-54 26 64" fill="#ffffff" />
      <path d="M240 80l-48-54-26 64" fill="#ffffff" />
      <circle cx="160" cy="204" r="132" fill="#ffffff" />
      <circle cx="118" cy="192" r="10" fill="#6b5b80" />
      <circle cx="202" cy="192" r="10" fill="#6b5b80" />
      <path d="M160 214l-16 18h32z" fill="#ff99b1" />
      <path d="M134 244c16 16 36 16 52 0" fill="none" stroke="#6b5b80" stroke-width="8" stroke-linecap="round" />
      <path d="M102 228H58M102 246H54M218 228h44M218 246h48" fill="none" stroke="#6b5b80" stroke-width="6" stroke-linecap="round" />
      <circle cx="160" cy="316" r="26" fill="#ffd86b" />
      <circle cx="160" cy="316" r="8" fill="#7f6841" />
    </g>

  </g>
</svg>
