<svg xmlns="http://www.w3.org/2000/svg" width="512" height="512" viewBox="0 0 512 512" role="img" aria-labelledby="title desc">
  <title>Moon Boat</title>
  <desc>Cute moon sticker</desc>
  <defs>
    <linearGradient id="bg" x1="0%" y1="0%" x2="100%" y2="100%">
      <stop offset="0%" stop-color="#f5f8ff" />
      <stop offset="100%" stop-color="#cfe0ff" />
    </linearGradient>
    <filter id="shadow" x="-20%" y="-20%" width="140%" height="140%">
      <feDropShadow dx="0" dy="12" stdDeviation="16" flood-color="#a7beeb" flood-opacity="0.22" />
    </filter>
  </defs>
  <rect width="512" height="512" rx="140" fill="url(#bg)" />
  <g opacity="0.35">
    <circle cx="92" cy="104" r="34" fill="#ffffff" />
    <circle cx="420" cy="118" r="28" fill="#ffffff" />
    <circle cx="392" cy="392" r="22" fill="#ffffff" />
  </g>
  <g filter="url(#shadow)">
    <g transform="translate(104 88)">
      <path d="M212 26c-30 16-62 62-62 124 0 74 44 126 104 144-20 12-44 18-70 18-92 0-166-74-166-166S92-20 184-20c10 0 20 2 28 6z" transform="translate(24 38)" fill="#ffeaa0" />
      <circle cx="164" cy="192" r="10" fill="#756781" />
      <circle cx="214" cy="192" r="10" fill="#756781" />
      <path d="M170 232c16 16 42 16 58 0" fill="none" stroke="#ff9cb2" stroke-width="10" stroke-linecap="round" />
      <circle cx="150" cy="218" r="12" fill="#ffd9e4" />
      <circle cx="228" cy="218" r="12" fill="#ffd9e4" />
    </g>

  </g>
</svg>
