<svg xmlns="http://www.w3.org/2000/svg" width="512" height="512" viewBox="0 0 512 512" role="img" aria-labelledby="title desc">
  <title>Rainbow Bridge</title>
  <desc>Cute pastel rainbow sticker</desc>
  <defs>
    <linearGradient id="bg" x1="0%" y1="0%" x2="100%" y2="100%">
      <stop offset="0%" stop-color="#fff6fb" />
      <stop offset="100%" stop-color="#ffd0e3" />
    </linearGradient>
    <filter id="shadow" x="-20%" y="-20%" width="140%" height="140%">
      <feDropShadow dx="0" dy="12" stdDeviation="16" flood-color="#f59cbc" flood-opacity="0.22" />
    </filter>
  </defs>
  <rect width="512" height="512" rx="140" fill="url(#bg)" />
  <g opacity="0.35">
    <circle cx="92" cy="104" r="34" fill="#ffffff" />
    <circle cx="420" cy="118" r="28" fill="#ffffff" />
    <circle cx="392" cy="392" r="22" fill="#ffffff" />
  </g>
  <g filter="url(#shadow)">
    <g transform="translate(84 100)">
      <path d="M40 242a132 132 0 0 1 264 0" fill="none" stroke="#ff8fb1" stroke-width="28" stroke-linecap="round" />
      <path d="M68 242a104 104 0 0 1 208 0" fill="none" stroke="#ffcf77" stroke-width="28" stroke-linecap="round" />
      <path d="M96 242a76 76 0 0 1 152 0" fill="none" stroke="#8fe2d0" stroke-width="28" stroke-linecap="round" />
      <path d="M124 242a48 48 0 0 1 96 0" fill="none" stroke="#9fc8ff" stroke-width="28" stroke-linecap="round" />
      <g>
        <circle cx="54" cy="254" r="40" fill="#ffffff" />
        <circle cx="90" cy="238" r="34" fill="#ffffff" />
        <circle cx="114" cy="260" r="30" fill="#ffffff" />
      </g>
      <g>
        <circle cx="290" cy="254" r="40" fill="#ffffff" />
        <circle cx="254" cy="238" r="34" fill="#ffffff" />
        <circle cx="230" cy="260" r="30" fill="#ffffff" />
      </g>
    </g>

  </g>
</svg>
