<svg xmlns="http://www.w3.org/2000/svg" width="512" height="512" viewBox="0 0 512 512" role="img" aria-labelledby="title desc">
  <title>Star Lamp</title>
  <desc>Cute wink star sticker</desc>
  <defs>
    <linearGradient id="bg" x1="0%" y1="0%" x2="100%" y2="100%">
      <stop offset="0%" stop-color="#fffbea" />
      <stop offset="100%" stop-color="#ffe499" />
    </linearGradient>
    <filter id="shadow" x="-20%" y="-20%" width="140%" height="140%">
      <feDropShadow dx="0" dy="12" stdDeviation="16" flood-color="#ffc93b" flood-opacity="0.22" />
    </filter>
  </defs>
  <rect width="512" height="512" rx="140" fill="url(#bg)" />
  <g opacity="0.35">
    <circle cx="92" cy="104" r="34" fill="#ffffff" />
    <circle cx="420" cy="118" r="28" fill="#ffffff" />
    <circle cx="392" cy="392" r="22" fill="#ffffff" />
  </g>
  <g filter="url(#shadow)">
    <g transform="translate(100 88)">
      <path d="M156 24l34 102h108l-86 62 32 102-88-64-88 64 32-102-86-62h108z" fill="#ffd55f" />
      <circle cx="128" cy="160" r="10" fill="#6d587d" />
      <path d="M180 160c0-6 4-10 10-10 6 0 10 4 10 10" fill="#6d587d" />
      <path d="M136 208c18 18 48 18 66 0" fill="none" stroke="#ff97a6" stroke-width="10" stroke-linecap="round" />
      <circle cx="112" cy="192" r="14" fill="#ffd4e0" />
      <circle cx="220" cy="192" r="14" fill="#ffd4e0" />
    </g>

  </g>
</svg>
